<svg width="82" height="82" viewBox="0 0 82 82" fill="none" xmlns="http://www.w3.org/2000/svg">
<path d="M46.125 41C46.125 43.8348 43.8348 46.125 41 46.125C38.1652 46.125 35.875 43.8348 35.875 41C35.875 38.1652 38.1652 35.875 41 35.875C43.8348 35.875 46.125 38.1652 46.125 41ZM0 41C0 18.3539 18.3539 0 41 0C63.6461 0 82 18.3539 82 41C82 63.6461 63.6461 82 41 82C18.3539 82 0 63.6461 0 41ZM52.0668 49.1199L60.9555 26.0094C62.1566 22.7582 59.0977 19.8434 55.9906 21.0445L32.8801 29.9332C31.5188 30.4457 30.4457 31.5188 29.9332 32.8801L21.0445 55.9906C19.8434 59.0977 22.7582 62.1566 26.0094 60.9555L49.1199 52.0668C50.4813 51.5543 51.5543 50.4813 52.0668 49.1199Z" fill="white"/>
</svg>
<svg width="15" height="18" viewBox="0 0 15 18" fill="none" xmlns="http://www.w3.org/2000/svg">
<path d="M14.7996 8.79905C14.7996 13.6354 11.3179 17.1547 6.54234 17.1547H0.385742V0.488037H6.54234C11.3324 0.488037 14.7996 3.98506 14.7996 8.79905ZM11.1943 8.79905C11.1943 5.8675 9.25357 3.82881 6.45512 3.82881H3.9038V13.7991H6.45512C9.25357 13.7991 11.1943 11.7083 11.1943 8.79161V8.79905Z" fill="black"/>
</svg>
