<svg width="361" height="567" viewBox="0 0 361 567" fill="none" xmlns="http://www.w3.org/2000/svg">
<g clip-path="url(#clip0_321_3564)">
<path d="M98.75 200.53C153.288 200.53 197.5 156.318 197.5 101.78C197.5 47.2419 153.288 3.03003 98.75 3.03003C44.2119 3.03003 0 47.2419 0 101.78C0 156.318 44.2119 200.53 98.75 200.53Z" fill="#E4E4E4"/>
<path d="M98.75 184.07C144.197 184.07 181.04 147.228 181.04 101.78C181.04 56.3325 144.197 19.49 98.75 19.49C53.3024 19.49 16.46 56.3325 16.46 101.78C16.46 147.228 53.3024 184.07 98.75 184.07Z" fill="#20C42F"/>
<path d="M91.7599 131.54C91.6099 131.54 91.4699 131.54 91.3199 131.53C88.6899 131.4 86.2399 130.13 84.6199 128.05L71.9999 111.82C68.9399 107.88 69.6499 102.2 73.5899 99.13L74.0399 98.78C77.9799 95.72 83.6599 96.43 86.7299 100.37C89.4599 103.88 94.5099 104.51 98.0199 101.78C98.3399 101.53 98.6399 101.26 98.9199 100.96L124.55 73.9C127.98 70.27 133.71 70.12 137.33 73.55L137.75 73.95C141.38 77.39 141.53 83.11 138.1 86.73L98.3299 128.71C96.6199 130.51 94.2499 131.53 91.7699 131.53L91.7599 131.54Z" fill="white"/>
<path d="M317.66 81.78H252.66V25.25C252.8 17.96 258.81 12.16 266.1 12.28H287.71C304.23 12.28 317.67 25.25 317.67 41.2V81.78H317.66Z" fill="#2F2E41"/>
<path d="M341.72 554.82H329.38L323.51 507.22H341.72V554.82Z" fill="#FFB6B6"/>
<path d="M344.87 566.78H305.08V566.28C305.08 557.73 312.01 550.79 320.57 550.79H344.87V566.78Z" fill="#2F2E41"/>
<path d="M227.99 554.82H215.65L209.78 507.22H227.99V554.82Z" fill="#FFB6B6"/>
<path d="M231.13 566.78H191.34V566.28C191.34 557.73 198.27 550.79 206.83 550.79H231.13V566.78V566.78Z" fill="#2F2E41"/>
<path d="M242.89 172.45L234.83 223.78L311.33 224.79L301.26 175.47L242.89 172.45Z" fill="#FFB6B6"/>
<path d="M237.05 211.25L212.69 276.12L209.67 544.96H230.3L279.62 328.96L324.91 539.32H345.04L330.95 302.79C330.95 302.79 335.11 255.32 313.84 227.3L308.66 212.35L237.05 211.25V211.25Z" fill="#2F2E41"/>
<path d="M341.56 261.82C333.51 259.63 328.77 251.33 330.96 243.28C331.19 242.42 331.5 241.59 331.88 240.78L299.34 134.69L323.28 129.95L353.04 233.94C360.36 238.02 362.99 247.27 358.9 254.59C355.48 260.72 348.31 263.7 341.55 261.82H341.56Z" fill="#FFB6B6"/>
<path d="M298.49 200.8L245.76 199.78C242.66 199.71 239.99 197.59 239.23 194.59C236.4 183.4 230.18 154.23 233.48 125.18C236.17 101.94 257.19 85.27 280.43 87.96C280.83 88.01 281.23 88.06 281.63 88.12C304.8 91.44 320.9 112.91 317.58 136.08C317.35 137.68 317.03 139.27 316.62 140.84C309.98 166.05 306.23 184.08 305.48 194.44C305.25 197.52 303 200.07 299.97 200.67C299.53 200.76 299.09 200.8 298.64 200.8C298.59 200.8 298.54 200.8 298.49 200.8V200.8Z" fill="#E4E4E4"/>
<path d="M138.32 107.6C138.64 108.31 138.9 109.04 139.1 109.8L205.1 132.23L217.85 121.09L237.18 138.14L216.52 160.06C213.09 163.7 207.67 164.63 203.22 162.36L132.59 126.28C125.64 130.54 116.56 128.36 112.3 121.42C108.04 114.47 110.22 105.39 117.16 101.13C124.11 96.87 133.19 99.05 137.45 105.99C137.77 106.51 138.06 107.05 138.31 107.61L138.32 107.6Z" fill="#FFB6B6"/>
<path d="M205.24 128.65C205.25 126.81 206.06 125.07 207.46 123.87L231.63 103.28C238.01 95.97 249.11 95.22 256.42 101.6C263.7 107.96 264.48 119 258.16 126.32L240.95 153.12C239.06 156.06 235.15 156.91 232.21 155.02C231.95 154.85 231.7 154.67 231.47 154.46L207.41 133.44C206.02 132.23 205.23 130.48 205.25 128.64L205.24 128.65Z" fill="#E4E4E4"/>
<path d="M297.88 161.56C296.25 160.7 295.08 159.18 294.66 157.39L287.51 126.46C283.96 117.43 288.4 107.23 297.43 103.68C306.43 100.14 316.59 104.54 320.17 113.52L336.03 141.14C337.77 144.17 336.72 148.04 333.7 149.78C333.43 149.93 333.15 150.07 332.86 150.18L303.13 161.86C301.42 162.53 299.5 162.43 297.87 161.57L297.88 161.56Z" fill="#E4E4E4"/>
<path d="M323.457 17.8025C325.898 12.0887 321.7 4.81873 314.082 1.56451C306.464 -1.68971 298.309 0.304146 295.869 6.01791C293.428 11.7317 297.625 19.0017 305.244 22.2559C312.862 25.5101 321.016 23.5162 323.457 17.8025Z" fill="#2F2E41"/>
<path d="M272.82 76.3C289.814 76.3 303.59 62.5238 303.59 45.53C303.59 28.5362 289.814 14.76 272.82 14.76C255.826 14.76 242.05 28.5362 242.05 45.53C242.05 62.5238 255.826 76.3 272.82 76.3Z" fill="#FFB6B6"/>
<path d="M289.7 10.28H254.5C249.15 10.21 244.65 14.28 244.18 19.61C243.81 25.12 247.98 29.89 253.49 30.25C253.71 30.26 253.93 30.27 254.15 30.27C259.67 30.27 264.15 34.75 264.15 40.27V81.27H319.15V39.74C319.15 23.47 305.96 10.28 289.69 10.28H289.7Z" fill="#2F2E41"/>
</g>
<defs>
<clipPath id="clip0_321_3564">
<rect width="360.83" height="566.78" fill="white"/>
</clipPath>
</defs>
</svg>
