<?xml version="1.0" encoding="UTF-8"?><svg id="Layer_2" xmlns="http://www.w3.org/2000/svg" viewBox="0 0 164.43 164.43"><defs><style>.cls-1{fill:#fff;}.cls-2{fill:#df0000;}</style></defs><g id="Layer_1-2"><rect class="cls-2" width="164.43" height="164.43"/><g><path class="cls-1" d="M81.94,98.42c-2.15,0-4.32-.3-6.45-.88l-.64-.19c-.66-.23-1.27-.43-1.86-.68-6.1-2.58-10.85-7.42-13.38-13.64-2.54-6.23-2.56-13.08-.06-19.31,.72-1.81,2.92-7.3,19.6-22.47l3.05-2.79,3.05,2.79c16.55,15.06,18.73,20.53,19.45,22.32,2.5,6.23,2.5,13.1-.04,19.33-2.54,6.23-7.28,11.07-13.38,13.63-3.02,1.26-6.16,1.9-9.34,1.9h0Zm.26-47.33c-11.01,10.33-13.55,14.72-14.14,16.17-1.58,3.91-1.56,8.22,.02,12.14,1.6,3.9,4.58,6.94,8.4,8.54,.37,.15,.75,.28,1.12,.41l.39,.11c3.2,.88,6.62,.66,9.8-.66,3.82-1.6,6.8-4.65,8.38-8.54,1.6-3.9,1.6-8.21,.02-12.12-.59-1.45-3.11-5.8-14.01-16.05h.02Z"/><path class="cls-1" d="M82.22,132.8l-43.02-44.02c-6.18-6.32-9.58-14.74-9.58-23.68s3.4-17.37,9.58-23.69c11.73-11.99,30.21-12.97,43.02-2.92,12.81-10.05,31.29-9.07,43.02,2.92,12.76,13.06,12.76,34.31,0,47.35l-43.02,44.04ZM62.32,41.04c-6.03,0-12.04,2.35-16.64,7.04-4.6,4.69-6.89,10.6-6.89,17.03s2.45,12.48,6.89,17.03l36.51,37.38,36.51-37.38c9.17-9.39,9.17-24.67,0-34.04-9.17-9.39-24.08-9.39-33.26,0l-3.25,3.33-3.25-3.33c-4.58-4.69-10.61-7.04-16.64-7.04l.02-.02Z"/></g></g></svg>