<svg width="20" height="20" viewBox="0 0 20 20" fill="none" xmlns="http://www.w3.org/2000/svg">
<g clip-path="url(#clip0_108_1640)">
<path d="M19.9688 15.1167L19.0605 19.0542C18.933 19.6108 18.4438 20.0003 17.8707 20.0003C8.01563 19.9995 0 11.9839 0 2.1284C0 1.55575 0.389414 1.0659 0.946094 0.938951L4.88359 0.0307475C5.45703 -0.102143 6.04297 0.195513 6.28125 0.73856L8.09844 4.97684C8.31086 5.47606 8.16758 6.0577 7.74766 6.40067L5.64453 8.08934C6.97188 10.7932 9.17031 12.9917 11.875 14.3198L13.5969 12.2182C13.9363 11.7972 14.5223 11.6515 15.0215 11.8677L19.2598 13.6845C19.7695 13.9526 20.1016 14.5464 19.9688 15.1167Z" fill="#DF0000"/>
</g>
<defs>
<clipPath id="clip0_108_1640">
<rect width="20" height="20" fill="white"/>
</clipPath>
</defs>
</svg>
