<svg width="31" height="31" viewBox="0 0 31 31" fill="none" xmlns="http://www.w3.org/2000/svg">
<path d="M30.7658 9.02869C30.7376 7.75418 30.5007 6.49659 30.0496 5.30668C29.6605 4.28031 29.057 3.35545 28.2788 2.58285C27.5118 1.79897 26.5813 1.19555 25.5606 0.812074C24.3651 0.366562 23.1075 0.124067 21.833 0.0958699C20.1975 0.0169183 19.6731 0 15.4999 0C11.3268 0 10.8023 0.0169181 9.16687 0.0902304C7.89236 0.118427 6.63478 0.355283 5.44486 0.806435C4.41849 1.18991 3.49363 1.79897 2.72103 2.57721C1.93715 3.34417 1.33374 4.27467 0.944618 5.30104C0.499106 6.49659 0.256611 7.75418 0.228414 9.02869C0.155102 10.6641 0.138184 11.1886 0.138184 15.3561C0.138184 19.5236 0.155102 20.0537 0.228414 21.6891C0.250972 22.9637 0.493466 24.2212 0.944618 25.4168C1.3281 26.4432 1.93715 27.3737 2.71539 28.1406C3.48235 28.9245 4.41285 29.5279 5.43922 29.9114C6.63478 30.3569 7.89236 30.5994 9.16687 30.6276C10.8079 30.7009 11.3268 30.7178 15.4999 30.7178C19.6731 30.7178 20.1975 30.7009 21.833 30.6276C23.1075 30.605 24.3651 30.3625 25.5606 29.9114C27.6246 29.1162 29.2544 27.4808 30.0552 25.4168C30.5007 24.2212 30.7432 22.9637 30.7714 21.6891C30.8447 20.0481 30.8617 19.5293 30.8617 15.3561C30.8617 11.1829 30.8391 10.6585 30.7658 9.02304V9.02869ZM28.0025 21.5707C27.9912 22.5463 27.8107 23.5107 27.4724 24.4243C26.9535 25.7664 25.8933 26.821 24.5568 27.3398C23.6432 27.6782 22.6789 27.8587 21.7033 27.8699C20.0848 27.9432 19.5998 27.9545 15.4943 27.9545C11.3888 27.9545 10.9094 27.9376 9.2853 27.8699C8.30968 27.8587 7.34534 27.6782 6.43176 27.3398C5.76631 27.0917 5.16289 26.7026 4.66662 26.1894C4.15908 25.6931 3.76432 25.0897 3.52183 24.4243C3.18346 23.5107 3.003 22.5463 2.99172 21.5707C2.91841 19.9522 2.90713 19.4672 2.90713 15.3617C2.90713 11.2562 2.92405 10.7769 2.99172 9.15275C3.003 8.17714 3.18346 7.2128 3.52183 6.29921C3.76996 5.63376 4.15908 5.03035 4.66662 4.53408C5.16289 4.02089 5.76631 3.63178 6.43176 3.38364C7.34534 3.04528 8.30968 2.86482 9.2853 2.85354C10.9038 2.78023 11.3888 2.76895 15.4943 2.76895C19.5998 2.76895 20.0791 2.78587 21.7033 2.85354C22.6789 2.86482 23.6432 3.04528 24.5568 3.38364C25.899 3.90247 26.9592 4.95704 27.4724 6.29921C27.8107 7.2128 27.9912 8.17714 28.0025 9.15275C28.0758 10.7713 28.0871 11.2562 28.0871 15.3617C28.0871 19.4672 28.0701 19.9466 28.0025 21.5707Z" fill="white"/>
<path d="M16.7293 23.0258V15.9822H19.0922L19.4418 13.2415H16.7293V11.4876C16.7293 10.6925 16.9492 10.1511 18.0884 10.1511H19.5433V7.69795C18.8384 7.62464 18.1335 7.58516 17.4286 7.5908C15.607 7.45545 14.0224 8.82019 13.8927 10.6417C13.8757 10.8335 13.8814 11.0252 13.8983 11.2169V13.2415H11.5298V15.9879H13.8983V23.0315H16.7349L16.7293 23.0258Z" fill="white"/>
</svg>
