<svg width="31" height="31" viewBox="0 0 31 31" fill="none" xmlns="http://www.w3.org/2000/svg">
<path d="M21.4128 9.51391C18.2999 6.40096 13.2526 6.40096 10.1397 9.51391C7.59066 12.0629 7.07183 16.0105 8.8708 19.1347L7.74292 23.2628L11.9668 22.1518C13.1342 22.7891 14.4425 23.1218 15.7734 23.1218C20.1496 23.1895 23.7475 19.7043 23.8209 15.3281C23.8547 13.14 22.9862 11.0366 21.4128 9.51391V9.51391ZM15.7734 21.7796C14.5835 21.7796 13.4218 21.4638 12.3954 20.8548L12.1529 20.7138L9.64904 21.3736L10.3145 18.9261L10.1566 18.6723C8.25611 15.5368 9.25428 11.4539 12.3898 9.55339C15.5253 7.65291 19.6082 8.65108 21.5087 11.7866C22.1234 12.8017 22.4561 13.9634 22.473 15.1533C22.4336 18.8246 19.4447 21.7853 15.7734 21.7796ZM19.4052 16.8169C19.2078 16.7154 18.2266 16.2361 18.0461 16.1684C17.8656 16.1007 17.7303 16.0669 17.595 16.2699C17.4596 16.4729 17.0818 16.9184 16.9633 17.0538C16.8449 17.1891 16.7321 17.2061 16.5291 17.1045C15.3843 16.6478 14.4256 15.8075 13.8166 14.736C13.6135 14.3864 14.0196 14.4089 14.4031 13.6476C14.4538 13.5348 14.4482 13.4051 14.3861 13.298C14.3354 13.1964 13.935 12.2152 13.7714 11.8204C13.6079 11.4257 13.4444 11.4877 13.3203 11.4821C13.1962 11.4764 13.0722 11.4764 12.9368 11.4764C12.7338 11.4821 12.5421 11.5723 12.4067 11.7246C11.9499 12.1588 11.7018 12.7622 11.7131 13.3882C11.7807 14.1382 12.0627 14.8544 12.5251 15.4466C13.3823 16.7267 14.5553 17.7644 15.9313 18.4524C16.6532 18.8697 17.4934 19.0445 18.3224 18.9486C18.8807 18.8358 19.3714 18.4918 19.6646 18.0012C19.7943 17.7023 19.8338 17.3752 19.7774 17.0538C19.7323 16.9636 19.6026 16.9128 19.4052 16.8169V16.8169Z" fill="white"/>
<path d="M30.904 9.02869C30.8758 7.75418 30.6389 6.49659 30.1878 5.30668C29.7986 4.28031 29.1952 3.35545 28.417 2.58285C27.65 1.79897 26.7195 1.19555 25.6988 0.812074C24.5032 0.366562 23.2457 0.124067 21.9712 0.0958699C20.3357 0.0169183 19.8113 0 15.6381 0C11.4649 0 10.9405 0.0169181 9.30505 0.0902304C8.03055 0.118427 6.77296 0.355283 5.58304 0.806435C4.55667 1.18991 3.63181 1.79897 2.85921 2.57721C2.07534 3.34417 1.47192 4.27467 1.0828 5.30104C0.637289 6.49659 0.394795 7.75418 0.366598 9.02869C0.293285 10.6641 0.276367 11.1886 0.276367 15.3561C0.276367 19.5236 0.293285 20.0537 0.366598 21.6891C0.389155 22.9637 0.63165 24.2212 1.0828 25.4168C1.46628 26.4432 2.07534 27.3737 2.85357 28.1406C3.62053 28.9245 4.55103 29.5279 5.57741 29.9114C6.77296 30.3569 8.03055 30.5994 9.30505 30.6276C10.9461 30.7009 11.4649 30.7178 15.6381 30.7178C19.8113 30.7178 20.3357 30.7009 21.9712 30.6276C23.2457 30.605 24.5032 30.3625 25.6988 29.9114C27.7628 29.1162 29.3926 27.4808 30.1934 25.4168C30.6389 24.2212 30.8814 22.9637 30.9096 21.6891C30.9829 20.0481 30.9998 19.5293 30.9998 15.3561C30.9998 11.1829 30.9773 10.6585 30.904 9.02304V9.02869ZM28.1407 21.5707C28.1294 22.5463 27.9489 23.5107 27.6106 24.4243C27.0917 25.7664 26.0315 26.821 24.695 27.3398C23.7814 27.6782 22.8171 27.8587 21.8414 27.8699C20.2229 27.9432 19.7379 27.9545 15.6325 27.9545C11.527 27.9545 11.0476 27.9376 9.42348 27.8699C8.44786 27.8587 7.48352 27.6782 6.56994 27.3398C5.90449 27.0917 5.30108 26.7026 4.80481 26.1894C4.29726 25.6931 3.9025 25.0897 3.66001 24.4243C3.32165 23.5107 3.14118 22.5463 3.12991 21.5707C3.05659 19.9522 3.04531 19.4672 3.04531 15.3617C3.04531 11.2562 3.06223 10.7769 3.12991 9.15275C3.14118 8.17714 3.32165 7.2128 3.66001 6.29921C3.90814 5.63376 4.29726 5.03035 4.80481 4.53408C5.30108 4.02089 5.90449 3.63178 6.56994 3.38364C7.48352 3.04528 8.44786 2.86482 9.42348 2.85354C11.042 2.78023 11.527 2.76895 15.6325 2.76895C19.7379 2.76895 20.2173 2.78587 21.8414 2.85354C22.8171 2.86482 23.7814 3.04528 24.695 3.38364C26.0372 3.90247 27.0974 4.95704 27.6106 6.29921C27.9489 7.2128 28.1294 8.17714 28.1407 9.15275C28.214 10.7713 28.2252 11.2562 28.2252 15.3617C28.2252 19.4672 28.2083 19.9466 28.1407 21.5707Z" fill="white"/>
</svg>
