<svg width="31" height="31" viewBox="0 0 31 31" fill="none" xmlns="http://www.w3.org/2000/svg">
<path d="M15.2828 7.44434C10.9404 7.44434 7.3876 10.9972 7.3876 15.3395C7.3876 19.6818 10.9404 23.2347 15.2828 23.2347C19.6251 23.2347 23.1779 19.6818 23.1779 15.3395C23.1779 10.9972 19.6251 7.44434 15.2828 7.44434ZM15.2828 20.4714C12.4631 20.4714 10.1509 18.1592 10.1509 15.3395C10.1509 12.5198 12.4631 10.2076 15.2828 10.2076C18.1025 10.2076 20.4146 12.5198 20.4146 15.3395C20.4146 18.1592 18.1025 20.4714 15.2828 20.4714Z" fill="white"/>
<path d="M30.5656 9.02305C30.5092 7.72598 30.2836 6.48531 29.8324 5.30104C29.4377 4.28595 28.8173 3.32725 28.0842 2.59413C27.2947 1.80461 26.3924 1.18427 25.3773 0.845911C24.193 0.394758 22.9524 0.169183 21.6553 0.112788C20.0199 0.0563945 19.5123 0 15.3392 0C11.166 0 10.6585 4.28572e-07 9.02305 0.112788C7.72598 0.112788 6.48531 0.394758 5.30104 0.845911C4.28595 1.24067 3.32725 1.861 2.59413 2.59413C1.80461 3.38364 1.18427 4.28595 0.84591 5.30104C0.394758 6.48531 0.169183 7.72598 0.112788 9.02305C0.0563945 10.6585 0 11.166 0 15.3392C0 19.5123 4.28572e-07 20.0199 0.112788 21.6553C0.112788 22.9524 0.394758 24.193 0.84591 25.3773C1.24067 26.3924 1.861 27.3511 2.59413 28.0842C3.38364 28.8737 4.28595 29.4941 5.30104 29.8324C6.48531 30.2836 7.72598 30.5092 9.02305 30.5656C10.6585 30.622 11.166 30.6784 15.3392 30.6784C19.5123 30.6784 20.0199 30.6784 21.6553 30.5656C22.9524 30.5656 24.193 30.2836 25.3773 29.8324C27.4639 29.0429 29.0993 27.4075 29.8888 25.3209C30.34 24.1366 30.5656 22.896 30.622 21.5989C30.6783 19.9635 30.7347 19.4559 30.7347 15.2828C30.7347 11.1096 30.622 10.6585 30.5656 9.02305ZM27.8023 21.5425C27.8023 22.5012 27.6331 23.4599 27.2947 24.4186C26.7872 25.7721 25.7157 26.7872 24.3622 27.3511C23.4599 27.6895 22.5012 27.8587 21.4861 27.8587C19.8507 27.915 19.3995 27.9714 15.2828 27.9714C11.166 27.9714 10.7149 27.9714 9.07944 27.8587C8.12074 27.8587 7.16204 27.6895 6.20334 27.3511C5.52662 27.1255 4.96267 26.7308 4.45513 26.2232C3.94758 25.7157 3.55282 25.1517 3.32725 24.475C2.98888 23.5727 2.8197 22.614 2.8197 21.5989C2.76331 19.9635 2.76331 19.5123 2.76331 15.3956C2.76331 11.2788 2.76331 10.8277 2.8197 9.19223C2.8197 8.23353 2.98888 7.27483 3.32725 6.31613C3.55282 5.6394 3.94758 5.07546 4.45513 4.56792C4.96267 4.06037 5.58301 3.66561 6.20334 3.44004C7.10565 3.10167 8.06435 2.93249 9.07944 2.93249C10.7149 2.8761 11.166 2.8761 15.2828 2.8761C19.3995 2.8761 19.8507 2.8761 21.4861 2.93249C22.4448 2.93249 23.4035 3.10167 24.3622 3.44004C25.7157 3.94758 26.7872 5.01907 27.2947 6.37253C27.6331 7.27483 27.8023 8.23353 27.8023 9.24862C27.8586 10.884 27.915 11.3352 27.915 15.452C27.915 19.5687 27.8586 19.9071 27.8023 21.5425Z" fill="white"/>
<path d="M23.2343 7.83875C23.9818 7.83875 24.5878 7.23279 24.5878 6.48529C24.5878 5.7378 23.9818 5.13184 23.2343 5.13184C22.4868 5.13184 21.8808 5.7378 21.8808 6.48529C21.8808 7.23279 22.4868 7.83875 23.2343 7.83875Z" fill="white"/>
</svg>
