<svg width="258" height="201" viewBox="0 0 258 201" fill="none" xmlns="http://www.w3.org/2000/svg">
<path d="M129.349 83.4552C126.661 83.4552 123.951 83.079 121.286 82.3501L120.482 82.1149C119.655 81.8327 118.897 81.5741 118.162 81.2684C110.536 78.047 104.609 72.0038 101.439 64.2206C98.2688 56.4374 98.2459 47.8783 101.37 40.0951C102.266 37.8377 105.022 30.9716 125.857 12.0192L129.671 8.53906L133.484 12.0192C154.158 30.8305 156.892 37.6731 157.788 39.907C160.912 47.6902 160.912 56.2728 157.742 64.056C154.572 71.8392 148.645 77.8824 141.019 81.0803C137.251 82.6557 133.323 83.4552 129.349 83.4552V83.4552ZM129.671 24.3171C115.911 37.2264 112.741 42.7052 112.006 44.5158C110.03 49.4067 110.053 54.7914 112.029 59.6824C114.027 64.5498 117.749 68.3591 122.527 70.3578C122.986 70.5459 123.468 70.7105 123.928 70.8751L124.41 71.0162C128.407 72.1214 132.68 71.8392 136.654 70.1932C141.432 68.1945 145.153 64.3852 147.129 59.5178C149.127 54.6504 149.127 49.2656 147.152 44.3747C146.417 42.5641 143.27 37.1323 129.648 24.3171H129.671Z" fill="white"/>
<path d="M129.694 126.414L75.9411 71.4139C68.2228 63.5131 63.9731 53.0023 63.9731 41.833C63.9731 30.6638 68.2228 20.1294 75.9411 12.2287C90.5969 -2.74986 113.683 -3.97259 129.694 8.58398C145.705 -3.97259 168.791 -2.74986 183.447 12.2287C199.389 28.5475 199.389 55.095 183.447 71.3903L129.694 126.414ZM104.839 11.7584C97.3045 11.7584 89.7929 14.6977 84.05 20.5527C78.3072 26.4077 75.4358 33.7912 75.4358 41.833C75.4358 49.8749 78.491 57.4229 84.05 63.1133L129.671 109.813L175.292 63.1133C186.755 51.3798 186.755 32.2863 175.292 20.5762C163.83 8.84263 145.2 8.84263 133.737 20.5762L129.671 24.7382L125.605 20.5762C119.885 14.7212 112.351 11.7819 104.816 11.7819L104.839 11.7584Z" fill="white"/>
<path d="M46.3189 173.184C46.3189 188.468 35.3156 199.59 20.2235 199.59H0.766724V146.918H20.2235C35.3616 146.918 46.3189 157.97 46.3189 173.184ZM34.9251 173.184C34.9251 163.919 28.7918 157.476 19.9478 157.476H11.8849V188.985H19.9478C28.7918 188.985 34.9251 182.378 34.9251 173.16V173.184Z" fill="white"/>
<path d="M51.8786 179.276C51.8786 166.954 61.0442 157.807 73.3339 157.807C85.6235 157.807 94.7891 166.954 94.7891 179.276C94.7891 191.597 85.5776 200.744 73.3339 200.744C61.0901 200.744 51.8786 191.526 51.8786 179.276V179.276ZM83.9236 179.276C83.9236 172.692 79.5361 168.13 73.3568 168.13C67.1775 168.13 62.79 172.692 62.79 179.276C62.79 185.86 67.1775 190.421 73.3568 190.421C79.5361 190.421 83.9236 185.86 83.9236 179.276V179.276Z" fill="white"/>
<path d="M139.789 174.972V199.591H129.062V176.735C129.062 170.598 126.788 167.635 122.147 167.635C116.611 167.635 113.235 171.703 113.235 178.24V199.591H102.507V158.959H109.881L111.971 163.991C114.98 160.323 119.712 157.995 125.111 157.995C134.161 157.995 139.789 164.673 139.789 174.972V174.972Z" fill="white"/>
<path d="M147.002 179.276C147.002 166.954 156.168 157.807 168.457 157.807C180.747 157.807 189.913 166.954 189.913 179.276C189.913 191.597 180.701 200.744 168.457 200.744C156.214 200.744 147.002 191.526 147.002 179.276V179.276ZM179.047 179.276C179.047 172.692 174.66 168.13 168.48 168.13C162.301 168.13 157.914 172.692 157.914 179.276C157.914 185.86 162.301 190.421 168.48 190.421C174.66 190.421 179.047 185.86 179.047 179.276V179.276Z" fill="white"/>
<path d="M221.43 158.724V169.094H216.766C210.725 169.094 208.336 171.845 208.336 178.476V199.592H197.608V158.959H204.5L206.406 163.944C209.232 160.347 212.815 158.748 217.915 158.748H221.453L221.43 158.724Z" fill="white"/>
<path d="M241.323 200.743C231.353 200.743 224.714 194.911 224.646 186.211H235.121C235.166 189.832 237.877 191.643 241.736 191.643C244.723 191.643 247.387 190.256 247.387 187.552C247.387 184.847 243.942 183.93 239.738 183.225C233.398 182.143 225.335 180.403 225.335 170.833C225.335 163.144 231.721 157.83 241.3 157.83C250.879 157.83 257.173 163.285 257.219 171.397H247.043C246.997 168.176 244.791 166.577 241.047 166.577C237.716 166.577 235.741 168.152 235.741 170.48C235.741 173.184 239.118 173.819 243.252 174.595C249.73 175.794 258 177.182 258 187.081C258 195.382 251.384 200.766 241.346 200.766L241.323 200.743Z" fill="white"/>
</svg>
