<svg width="423" height="89" viewBox="0 0 423 89" fill="none" xmlns="http://www.w3.org/2000/svg">
<path d="M45.8123 58.4792C43.929 58.4792 42.0295 58.2156 40.1622 57.7048L39.5988 57.54C39.0193 57.3423 38.4881 57.161 37.973 56.9468C32.6288 54.6894 28.4757 50.4547 26.2543 45.0006C24.0329 39.5466 24.0168 33.5488 26.206 28.0947C26.8338 26.5129 28.7655 21.7015 43.3656 8.4206L46.0377 5.98193L48.7098 8.4206C63.1972 21.6026 65.1128 26.3975 65.7405 27.9629C67.9298 33.417 67.9298 39.4312 65.7084 44.8853C63.4869 50.3393 59.3339 54.5741 53.9897 56.815C51.3497 57.919 48.5971 58.4792 45.8123 58.4792V58.4792ZM46.0377 17.0383C36.3955 26.0845 34.1741 29.9237 33.659 31.1925C32.2746 34.6198 32.2907 38.3932 33.6751 41.8205C35.0755 45.2313 37.6833 47.9007 41.0315 49.3013C41.3534 49.4331 41.6915 49.5484 42.0134 49.6638L42.3514 49.7626C45.1523 50.5371 48.1464 50.3393 50.9312 49.1859C54.2794 47.7853 56.8871 45.116 58.2715 41.7051C59.6719 38.2943 59.6719 34.521 58.2876 31.0936C57.7725 29.8249 55.5672 26.0186 46.0216 17.0383H46.0377Z" fill="white"/>
<path d="M46.0538 88.5839L8.3866 50.0431C2.97797 44.5066 0 37.1412 0 29.3144C0 21.4876 2.97797 14.1056 8.3866 8.56921C18.6566 -1.92695 34.8342 -2.78378 46.0538 6.0152C57.2735 -2.78378 73.4511 -1.92695 83.7211 8.56921C94.8925 20.0046 94.8925 38.6077 83.7211 50.0266L46.0538 88.5839ZM28.6368 8.23966C23.3569 8.23966 18.0932 10.2993 14.0689 14.4022C10.0446 18.5051 8.03246 23.6791 8.03246 29.3144C8.03246 34.9497 10.1734 40.2389 14.0689 44.2265L46.0377 76.9508L78.0066 44.2265C86.0391 36.0042 86.0391 22.6245 78.0066 14.4187C69.9741 6.19645 56.9194 6.19645 48.8869 14.4187L46.0377 17.3352L43.1886 14.4187C39.1804 10.3158 33.9005 8.25614 28.6207 8.25614L28.6368 8.23966Z" fill="white"/>
<path d="M147.932 43.8473C147.932 54.5576 140.222 62.3515 129.646 62.3515H116.012V25.4419H129.646C140.254 25.4419 147.932 33.1863 147.932 43.8473ZM139.948 43.8473C139.948 37.3551 135.65 32.8403 129.453 32.8403H123.803V54.9201H129.453C135.65 54.9201 139.948 50.29 139.948 43.8308V43.8473Z" fill="white"/>
<path d="M151.828 48.1148C151.828 39.4805 158.251 33.0708 166.863 33.0708C175.475 33.0708 181.897 39.4805 181.897 48.1148C181.897 56.749 175.442 63.1587 166.863 63.1587C158.283 63.1587 151.828 56.6995 151.828 48.1148V48.1148ZM174.283 48.1148C174.283 43.5011 171.209 40.3044 166.879 40.3044C162.549 40.3044 159.474 43.5011 159.474 48.1148C159.474 52.7285 162.549 55.9251 166.879 55.9251C171.209 55.9251 174.283 52.7285 174.283 48.1148V48.1148Z" fill="white"/>
<path d="M213.431 45.0994V62.3513H205.914V46.3352C205.914 42.0346 204.32 39.9584 201.069 39.9584C197.189 39.9584 194.823 42.809 194.823 47.3898V62.3513H187.306V33.8782H192.473L193.938 37.4044C196.047 34.8339 199.363 33.2026 203.145 33.2026C209.488 33.2026 213.431 37.8822 213.431 45.0994V45.0994Z" fill="white"/>
<path d="M218.486 48.1148C218.486 39.4805 224.909 33.0708 233.521 33.0708C242.133 33.0708 248.555 39.4805 248.555 48.1148C248.555 56.749 242.101 63.1587 233.521 63.1587C224.941 63.1587 218.486 56.6995 218.486 48.1148V48.1148ZM240.941 48.1148C240.941 43.5011 237.867 40.3044 233.537 40.3044C229.207 40.3044 226.132 43.5011 226.132 48.1148C226.132 52.7285 229.207 55.9251 233.537 55.9251C237.867 55.9251 240.941 52.7285 240.941 48.1148V48.1148Z" fill="white"/>
<path d="M270.641 33.7144V40.9809H267.373C263.139 40.9809 261.465 42.9088 261.465 47.5555V62.3522H253.948V33.8791H258.777L260.113 37.3724C262.093 34.8513 264.604 33.7308 268.178 33.7308H270.657L270.641 33.7144Z" fill="white"/>
<path d="M284.581 63.1598C277.595 63.1598 272.943 59.0734 272.894 52.9767H280.235C280.267 55.5142 282.166 56.783 284.87 56.783C286.963 56.783 288.83 55.8108 288.83 53.9159C288.83 52.021 286.416 51.3784 283.47 50.8841C279.027 50.1261 273.377 48.9068 273.377 42.2004C273.377 36.8123 277.852 33.0884 284.565 33.0884C291.277 33.0884 295.688 36.9112 295.72 42.5959H288.589C288.557 40.3385 287.011 39.218 284.388 39.218C282.053 39.218 280.669 40.322 280.669 41.9533C280.669 43.8482 283.035 44.2931 285.933 44.8368C290.472 45.6772 296.267 46.6494 296.267 53.5864C296.267 59.4029 291.631 63.1763 284.597 63.1763L284.581 63.1598Z" fill="white"/>
<path d="M305.201 54.1128C307.406 54.1128 309.193 55.9418 309.193 58.1992V58.2816C309.193 60.539 307.406 62.368 305.201 62.368C302.996 62.368 301.209 60.539 301.209 58.2816V58.1992C301.209 55.9418 302.996 54.1128 305.201 54.1128Z" fill="white"/>
<path d="M328.655 63.1587C320.284 63.1587 313.894 56.5677 313.894 48.0324C313.894 39.497 320.252 33.0708 328.703 33.0708C335.898 33.0708 341.5 37.7504 342.852 44.7533H335.383C334.16 41.9522 331.665 40.3044 328.671 40.3044C324.598 40.3044 321.524 43.6494 321.524 48.0653C321.524 52.4813 324.646 55.9086 328.671 55.9086C331.713 55.9086 334.112 54.1785 335.383 51.1301H342.949C341.645 58.2814 335.947 63.1422 328.671 63.1422L328.655 63.1587Z" fill="white"/>
<path d="M346.072 48.1148C346.072 39.4805 352.494 33.0708 361.106 33.0708C369.718 33.0708 376.141 39.4805 376.141 48.1148C376.141 56.749 369.686 63.1587 361.106 63.1587C352.527 63.1587 346.072 56.6995 346.072 48.1148V48.1148ZM368.527 48.1148C368.527 43.5011 365.453 40.3044 361.123 40.3044C356.792 40.3044 353.718 43.5011 353.718 48.1148C353.718 52.7285 356.792 55.9251 361.123 55.9251C365.453 55.9251 368.527 52.7285 368.527 48.1148V48.1148Z" fill="white"/>
<path d="M422.984 44.4897V62.3513H415.467V45.775C415.467 41.9687 414.018 39.9749 411.281 39.9749C407.917 39.9749 405.937 42.5124 405.937 46.9613V62.3678H398.597V45.7914C398.597 41.9851 397.18 39.9914 394.492 39.9914C391.096 39.9914 389.067 42.5289 389.067 46.9778V62.3843H381.55V33.8782H386.798L388.214 37.4044C390.194 34.8504 393.236 33.2026 396.504 33.2026C400.046 33.2026 402.959 34.8998 404.585 37.7669C406.484 34.9987 409.655 33.2026 413.197 33.2026C418.96 33.2026 423 37.8163 423 44.4897H422.984Z" fill="white"/>
</svg>
