<svg width="80" height="70" viewBox="0 0 80 70" fill="none" xmlns="http://www.w3.org/2000/svg">
<g clip-path="url(#clip0_188_195)">
<path d="M43.5114 69.9917C33.4733 69.9917 23.4351 70.0043 13.3928 69.9876C5.02763 69.9708 0.00018093 64.9123 0.00018093 56.5469C0.00018093 39.4692 -0.00400164 22.3872 0.00854607 5.30947C0.0127286 1.40478 2.65193 -0.70224 6.27822 0.213312C8.46152 0.765152 9.60754 2.1991 9.63264 4.64057C9.67865 8.89224 9.64937 13.1439 9.64937 17.3998C9.64937 30.2259 9.64937 43.0561 9.64937 55.8822C9.64937 59.4859 10.3395 60.1882 13.8738 60.1882C34.0212 60.1882 54.1686 60.184 74.3161 60.1924C78.0218 60.1924 80.1215 62.128 79.9876 65.3346C79.8663 68.2108 77.9089 69.9708 74.6674 69.9834C67.2768 70.0126 59.8862 69.9917 52.4998 69.9959C49.5009 69.9959 46.5062 69.9959 43.5073 69.9959L43.5114 69.9917Z" fill="white"/>
<path d="M32.1975 34.678C29.6043 37.2742 26.8563 40.0292 24.1 42.7717C21.6072 45.255 18.5749 45.5476 16.5087 43.52C14.4048 41.459 14.6641 38.2483 17.157 35.7483C20.8962 32.0025 24.627 28.2441 28.3997 24.5317C31.1727 21.806 33.7952 21.8269 36.5975 24.5275C40.2531 28.0518 43.8919 31.5928 47.5182 35.1087C50.3038 32.2784 53.2483 29.2893 56.4187 26.0702C55.1138 24.7658 53.6833 23.2859 52.1943 21.8645C50.8266 20.556 50.0654 19.1304 50.8559 17.2157C51.6297 15.3386 53.1898 15.0376 54.9674 15.0459C60.1914 15.0668 65.4154 15.0376 70.6436 15.0585C73.5296 15.071 74.9768 16.2792 75.0437 19.1806C75.1692 24.6112 75.1274 30.0459 75.0437 35.4807C75.0186 37.1279 74.4623 38.5786 72.6178 39.2433C70.8026 39.8954 69.5185 39.1764 68.3181 37.9807C67.1805 36.852 65.9926 35.765 64.9428 34.561C64.0143 33.5033 63.3451 33.6078 62.404 34.5694C58.899 38.1563 55.3271 41.6806 51.7761 45.2215C48.8985 48.0936 46.0334 48.0225 43.0805 45.1296C39.5546 41.6764 35.9618 38.2901 32.1891 34.6739L32.1975 34.678Z" fill="white"/>
</g>
<defs>
<clipPath id="clip0_188_195">
<rect width="80" height="70" fill="white"/>
</clipPath>
</defs>
</svg>
