<svg width="53" height="70" viewBox="0 0 53 70" fill="none" xmlns="http://www.w3.org/2000/svg">
<path d="M15.4723 62.1113C15.4723 62.9723 15.7229 63.8121 16.2016 64.5299L18.5673 68.0422C19.2919 69.1189 20.9371 69.9945 22.2441 69.9945H30.7559C32.0585 69.9945 33.704 69.1194 34.4286 68.0422L36.786 64.5313C37.1915 63.9245 37.5242 62.8401 37.5242 62.1113L37.5418 56.752H15.4585L15.4723 62.1113ZM26.4173 0.00182318C12.3447 0.0445478 2.2085 11.3436 2.2085 23.9395C2.2085 30.0071 4.47756 35.5387 8.22068 39.7715C10.5022 42.3473 14.0645 47.7326 15.4281 52.2744C15.4324 52.3086 15.4411 52.3451 15.4454 52.3814H37.5563C37.5606 52.3451 37.5693 52.3108 37.5736 52.2744C38.9365 47.7326 42.4995 42.3473 44.781 39.7715C48.5283 35.6563 50.7918 30.1328 50.7918 23.9395C50.7918 10.7475 39.8744 -0.0387686 26.4173 0.00182318ZM26.5002 13.1264C20.4093 13.1264 15.4585 18.0332 15.4585 23.9408C15.4585 25.2656 14.4647 26.25 13.2502 26.25C12.0356 26.25 11.0418 25.2656 11.0418 24.0625C11.0418 15.6188 17.9774 8.87307 26.5002 8.87307C27.7208 8.87307 28.7085 9.85183 28.7085 11.0606C28.7085 12.2693 27.7147 13.1264 26.5002 13.1264Z" fill="white"/>
</svg>
