<svg width="82" height="66" viewBox="0 0 82 66" fill="none" xmlns="http://www.w3.org/2000/svg">
<path d="M23.575 11.3438C23.575 15.327 20.3591 18.5625 16.4 18.5625C12.4371 18.5625 9.225 15.327 9.225 11.3438C9.225 7.35668 12.4371 4.125 16.4 4.125C20.3591 4.125 23.575 7.35668 23.575 11.3438ZM26.7012 25.3043C22.8959 28.7074 20.5 33.6703 20.5 39.1875C20.5 43.609 21.9222 47.6695 24.6 50.8535V53.625C24.6 55.9066 22.7678 57.75 20.5 57.75H12.3C10.036 57.75 8.2 55.9066 8.2 53.625V50.1703C3.35175 47.85 0 42.8871 0 37.125C0 29.1457 6.42419 22.6875 14.35 22.6875H18.45C21.4097 22.6875 24.3694 23.6543 26.7012 25.3043ZM8.2 31.6723C6.92387 33.116 6.15 35.0367 6.15 37.125C6.15 39.2133 6.92387 41.134 8.2 42.5777V31.6723ZM57.4 53.625V50.8535C59.9625 47.6695 61.5 43.609 61.5 39.1875C61.5 33.6703 59.1041 28.7074 55.2987 25.3043C57.6306 23.6543 60.475 22.6875 63.55 22.6875H67.65C75.5809 22.6875 82 29.1457 82 37.125C82 42.8871 78.6431 47.85 73.8 50.1703V53.625C73.8 55.9066 71.9678 57.75 69.7 57.75H61.5C59.2322 57.75 57.4 55.9066 57.4 53.625ZM73.8 42.5777C74.9659 41.134 75.85 39.2133 75.85 37.125C75.85 35.0367 74.9659 33.116 73.8 31.6723V42.5777ZM72.775 11.3438C72.775 15.327 69.5591 18.5625 65.6 18.5625C61.6409 18.5625 58.425 15.327 58.425 11.3438C58.425 7.35668 61.6409 4.125 65.6 4.125C69.5591 4.125 72.775 7.35668 72.775 11.3438ZM32.8 12.375C32.8 7.81816 36.4772 4.125 41 4.125C45.5228 4.125 49.2 7.81816 49.2 12.375C49.2 16.9254 45.5228 20.625 41 20.625C36.4772 20.625 32.8 16.9254 32.8 12.375ZM57.4 39.1875C57.4 44.9496 54.0431 49.9125 49.2 52.2328V57.75C49.2 60.0316 47.3678 61.875 45.1 61.875H36.9C34.6322 61.875 32.8 60.0316 32.8 57.75V52.2328C27.9569 49.9125 24.6 44.9496 24.6 39.1875C24.6 31.2082 31.0191 24.75 38.95 24.75H43.05C50.9809 24.75 57.4 31.2082 57.4 39.1875ZM32.8 44.6402V33.7348C31.5187 35.1785 30.75 37.0992 30.75 39.1875C30.75 41.2758 31.5187 43.1965 32.8 44.6402ZM49.2 33.7348V44.6402C50.3659 43.1836 51.25 41.2758 51.25 39.1875C51.25 37.0992 50.3659 35.1785 49.2 33.7348Z" fill="white"/>
</svg>
